<?xml version="1.0" encoding="utf-8"?>
<!-- Generator: Adobe Illustrator 24.1.2, SVG Export Plug-In . SVG Version: 6.00 Build 0)  -->
<svg version="1.1" id="圖層_1" xmlns="http://www.w3.org/2000/svg" xmlns:xlink="http://www.w3.org/1999/xlink" x="0px" y="0px"
	 viewBox="0 0 24 24" style="enable-background:new 0 0 24 24;" xml:space="preserve">
<style type="text/css">
	.st0{fill:#193E5B;}
</style>
<path d="M731.1,350l-4.7-4.7c-0.7-0.7-1.7-0.7-2.4,0c-0.4,0.4-0.5,0.9-0.4,1.4c-0.4,0-0.7,0.1-1,0.4l0,0l-12.2,12.2
	c0.1,1.1-0.1,2.2-0.8,3.1l1.3,1.3l0,0l0.1,0.1l-2.7,2.7l-8.8-8.8c1-3.5,0.1-7.5-2.7-10.3c-2.8-2.8-6.7-3.7-10.2-2.7l6,6l-1.6,5.9
	l-5.9,1.6l-6-6c-1,3.5-0.1,7.5,2.7,10.2c2.9,2.9,7.1,3.8,10.8,2.6l0,0l8.6,8.6l-8.2,8.2l-0.4-0.4l-2.3,1.9l-3.9,6.1l1,1l6.1-3.9
	l1.9-2.3l-0.4-0.4l8.2-8.2l14.1,14.1c1,1,2.3,1.5,3.5,1.5c1.3,0,2.5-0.5,3.5-1.5c1.9-1.9,1.9-5.1,0-7l-14.1-14l2.6-2.6l1.2,1.2
	c0.9-0.6,2-0.9,3.1-0.8l12-12l0.2-0.2l0,0c0.2-0.3,0.4-0.6,0.4-1c0.5,0.1,1-0.1,1.4-0.4C731.8,351.7,731.8,350.7,731.1,350z
	 M721.3,384.8c1.1,0,1.9,0.8,1.9,1.9c0,1.1-0.8,1.9-1.9,1.9c-1,0-1.9-0.9-1.9-1.9C719.4,385.6,720.2,384.8,721.3,384.8z
	 M714.4,359.9l-0.8-0.8l9-9l0.8,0.8L714.4,359.9z M717.4,362.8l-0.8-0.8l9-9l0.8,0.8L717.4,362.8z"/>
<path class="st0" d="M23.8,4l-2.1-2.1c-0.3-0.3-0.8-0.3-1.1,0c-0.2,0.2-0.2,0.4-0.2,0.6c-0.2,0-0.3,0.1-0.5,0.2l0,0l-5.5,5.5
	c0.1,0.5-0.1,1-0.3,1.4l0.6,0.6l0,0l0.1,0.1l-1.2,1.2l-4-4c0.5-1.6,0-3.4-1.2-4.7c-1.3-1.3-3-1.7-4.7-1.2l2.7,2.7L5.6,6.9L2.9,7.6
	L0.2,4.9c-0.4,1.6,0,3.4,1.2,4.7c1.3,1.3,3.2,1.7,4.9,1.2l0,0l3.9,3.9l-3.7,3.7l-0.2-0.2l-1,0.8l-1.8,2.8l0.5,0.5l2.8-1.8l0.8-1
	l-0.2-0.2l3.7-3.7l6.4,6.4c0.4,0.4,1,0.7,1.6,0.7c0.6,0,1.2-0.2,1.6-0.7c0.9-0.9,0.9-2.3,0-3.2l-6.4-6.4l1.2-1.2l0.5,0.5
	c0.4-0.3,0.9-0.4,1.4-0.4l5.5-5.5L23,5.8l0,0c0.1-0.1,0.2-0.3,0.2-0.5c0.2,0,0.5,0,0.6-0.2C24.1,4.8,24.1,4.3,23.8,4z M19.3,19.8
	c0.5,0,0.9,0.4,0.9,0.9c0,0.5-0.4,0.9-0.9,0.9c-0.5,0-0.9-0.4-0.9-0.9C18.4,20.2,18.8,19.8,19.3,19.8z M16.2,8.5l-0.4-0.4l4.1-4.1
	l0.4,0.4L16.2,8.5z M17.5,9.9l-0.4-0.4l4.1-4.1l0.4,0.4L17.5,9.9z"/>
</svg>
