<?xml version="1.0" encoding="utf-8"?>
<!-- Generator: Adobe Illustrator 24.1.2, SVG Export Plug-In . SVG Version: 6.00 Build 0)  -->
<svg version="1.1" id="圖層_1" xmlns="http://www.w3.org/2000/svg" xmlns:xlink="http://www.w3.org/1999/xlink" x="0px" y="0px"
	 viewBox="0 0 24 24" style="enable-background:new 0 0 24 24;" xml:space="preserve">
<style type="text/css">
	.st0{fill:#193E5B;}
</style>
<path class="st0" d="M3.4,17.2H1.7C0.8,17.2,0,18,0,18.9c0,0.9,0.8,1.7,1.7,1.7h1.7c0.9,0,1.7-0.8,1.7-1.7C5.1,18,4.4,17.2,3.4,17.2
	z M3.4,10.3H1.7c-0.9,0-1.7,0.8-1.7,1.7c0,0.9,0.8,1.7,1.7,1.7h1.7c0.9,0,1.7-0.8,1.7-1.7C5.1,11.1,4.4,10.3,3.4,10.3z M3.4,3.5H1.7
	C0.8,3.5,0,4.3,0,5.2c0,0.9,0.8,1.7,1.7,1.7h1.7c0.9,0,1.7-0.8,1.7-1.7C5.1,4.3,4.4,3.5,3.4,3.5z M10.3,6.9h12
	c0.9,0,1.7-0.8,1.7-1.7c0-0.9-0.8-1.7-1.7-1.7h-12c-0.9,0-1.7,0.8-1.7,1.7C8.6,6.2,9.3,6.9,10.3,6.9z M22.3,10.3h-12
	c-0.9,0-1.7,0.8-1.7,1.7c0,0.9,0.8,1.7,1.7,1.7h12c0.9,0,1.7-0.8,1.7-1.7C24,11.1,23.2,10.3,22.3,10.3z M22.3,17.2h-12
	c-0.9,0-1.7,0.8-1.7,1.7c0,0.9,0.8,1.7,1.7,1.7h12c0.9,0,1.7-0.8,1.7-1.7C24,18,23.2,17.2,22.3,17.2z"/>
</svg>
