<?xml version="1.0" encoding="utf-8"?>
<!-- Generator: Adobe Illustrator 24.1.2, SVG Export Plug-In . SVG Version: 6.00 Build 0)  -->
<svg version="1.1" id="圖層_1" xmlns="http://www.w3.org/2000/svg" xmlns:xlink="http://www.w3.org/1999/xlink" x="0px" y="0px"
	 viewBox="0 0 24 24" style="enable-background:new 0 0 24 24;" xml:space="preserve">
<style type="text/css">
	.st0{fill:#193E5B;}
</style>
<path class="st0" d="M24,13.5c0-0.9-0.6-1.6-1.4-1.8c0.4-0.3,0.6-0.8,0.6-1.4c0-1-0.8-1.8-1.8-1.8h-4.6c0.2-0.3,0.3-0.6,0.5-0.9
	c0.4-0.8,0.7-1.6,0.9-2.3c0-0.1,0.1-0.3,0.1-0.4l0-0.1c0-0.2,0.1-0.3,0.1-0.5c0-0.3,0.1-0.6,0.1-0.8c0-0.2,0-0.3,0-0.4l0-0.3
	c0-0.8-0.6-1.5-1.4-1.7c-0.9-0.2-1.9,0.4-2.1,1.4l-0.1,0.3c0,0,0,0.1,0,0.1c0,0,0,0.1,0,0.2l0,0.1c0,0.1-0.1,0.2-0.1,0.3
	c0,0.1-0.1,0.1-0.1,0.2l0,0.1c0,0.1-0.1,0.1-0.1,0.2c-0.2,0.4-0.5,0.9-0.9,1.3c-0.2,0.2-0.4,0.4-0.6,0.7c-0.2,0.2-0.5,0.5-0.7,0.7
	c-1.2,1.1-2.4,2-3,2.4C9.1,9.3,9,9.3,8.9,9.4c0,0,0,0-0.1,0V9.3c0-0.3-0.2-0.5-0.5-0.5H6.2c0-0.1-0.1-0.2-0.3-0.2H0.3
	C0.1,8.7,0,8.8,0,8.9v13.6c0,0.2,0.1,0.3,0.3,0.3H6c0.2,0,0.3-0.1,0.3-0.3v-0.1h2.1c0.3,0,0.5-0.2,0.5-0.5v-1.2c0.3,0,0.6,0,0.8,0
	c0.8,0,1.4,0,1.7,0.1c0.2,0,0.6,0.2,1,0.3c0.4,0.2,0.8,0.3,1.1,0.4c0.5,0.1,1.4,0.1,2.7,0.1c2.1,0,4.5-0.1,4.5-0.1
	c1,0,1.8-0.8,1.8-1.8c0-0.6-0.2-1-0.5-1.4c0.7-0.3,1.1-0.9,1.1-1.7c0-0.5-0.2-1-0.6-1.3C23.4,15.1,24,14.3,24,13.5z M6.5,21.4V9.8
	h1.4v11.6H6.5z"/>
</svg>
